# xmcd
#
# Track frame offsets:
#	150
#	12350
#	33702
#	45227
#	55830
#	69447
#	83817
#	96942
#	112432
#	129235
#	154537
#	168962
#	187657
#	210387
#	232317
#
# Disc length: 3339
#
# Revision: 2
# Processed by: cddbd v1.5.1PL0 Copyright (c) Steve Scherf et al.
# Submitted via: audiograbber 1.80.04
# Normalized: r1:DSETVAR1
#
DISCID=c00d090f
DTITLE=Various Artist - Blues Story #26
DYEAR=1998
DGENRE=Blues
TTITLE0=John Lee Hooker - I'm In The Mood
TTITLE1=Sonny Terry - Sonny' Whoopin' The Droop
TTITLE2=Sonny Boy Wiliamson - Peach Tree
TTITLE3=Mississipi John Hurt - Worried Blues
TTITLE4=Blind Lemon Jefferson - Match Box Blues
TTITLE5=Skip James - Devil Got My Woman
TTITLE6=Muddy Waters - Burr Clover Farm Blues
TTITLE7=Tad Hawkins - Ladder Of Success
TTITLE8=Bob Brozman - Honeymoon Blues
TTITLE9=Bo Ramsey - Back No More
TTITLE10=Corey Harris - High Fever Blues
TTITLE11=Greg Brown - Some Day When We're Both Alone
TTITLE12=Furry Lewis - Going To Brownsville
TTITLE13=David Lindley - Attar
TTITLE14=Preacher Boy - Please Call Me Baby
EXTD=
EXTT0=
EXTT1=
EXTT2=
EXTT3=
EXTT4=
EXTT5=
EXTT6=
EXTT7=
EXTT8=
EXTT9=
EXTT10=
EXTT11=
EXTT12=
EXTT13=
EXTT14=
PLAYORDER=
